<svg xmlns="http://www.w3.org/2000/svg" version="1.1" xmlns:xlink="http://www.w3.org/1999/xlink" xmlns:svgjs="http://svgjs.dev/svgjs" width="1500" height="1500" viewBox="0 0 1500 1500"><g transform="matrix(1,0,0,1,-0.323615160350073,-0.3236151603499593)"><svg viewBox="0 0 343 343" data-background-color="#fafafa" preserveAspectRatio="xMidYMid meet" height="1500" width="1500" xmlns="http://www.w3.org/2000/svg" xmlns:xlink="http://www.w3.org/1999/xlink"><g id="tight-bounds" transform="matrix(1,0,0,1,0.0740000000000407,0.07400000000001228)"><svg viewBox="0 0 342.85155851775386 342.85155851775386" height="342.85155851775386" width="342.85155851775386"><g><svg></svg></g><g><svg viewBox="0 0 342.85155851775386 342.85155851775386" height="342.85155851775386" width="342.85155851775386"><g><path d="M0 171.426c0-94.676 76.75-171.426 171.426-171.426 94.676 0 171.426 76.75 171.426 171.426 0 94.676-76.75 171.426-171.426 171.426-94.676 0-171.426-76.75-171.426-171.426zM171.426 339.824c93.004 0 168.398-75.394 168.398-168.398 0-93.004-75.394-168.398-168.398-168.398-93.004 0-168.398 75.394-168.398 168.398 0 93.004 75.394 168.398 168.398 168.398z" data-fill-palette-color="tertiary" fill="#130912" stroke="transparent"></path><ellipse rx="164.56874808852186" ry="164.56874808852186" cx="171.42577925887693" cy="171.42577925887693" fill="#130912" stroke="transparent" stroke-width="0" fill-opacity="1" data-fill-palette-color="tertiary"></ellipse></g><g transform="matrix(1,0,0,1,64.84655864529837,101.6238712430979)"><svg viewBox="0 0 213.1584412271571 139.60381603155807" height="139.60381603155807" width="213.1584412271571"><g><svg viewBox="0 0 213.1584412271571 139.60381603155807" height="139.60381603155807" width="213.1584412271571"><g transform="matrix(1,0,0,1,0,84.32347001754432)"><svg viewBox="0 0 213.1584412271571 55.28034601401374" height="55.28034601401374" width="213.1584412271571"><g id="textblocktransform"><svg viewBox="0 0 213.1584412271571 55.28034601401374" height="55.28034601401374" width="213.1584412271571" id="textblock"><g><svg viewBox="0 0 213.1584412271571 33.574068631192205" height="33.574068631192205" width="213.1584412271571"><g transform="matrix(1,0,0,1,0,0)"><svg width="213.1584412271571" viewBox="3.3 -35.7 231.07999999999998 36.400000000000006" height="33.574068631192205" data-palette-color="#fafafa"><path d="M3.3 0L3.3-35 22.45-35 22.45-30.2 8.55-30.2 8.55-20.7 19.4-20.7 19.4-15.9 8.55-15.9 8.55-4.8 22.85-4.8 22.85 0 3.3 0ZM40.95 0.7Q36.3 0.7 32.75-1.53 29.2-3.75 27.2-7.88 25.2-12 25.2-17.5L25.2-17.5Q25.2-22.95 27.22-27.1 29.25-31.25 32.82-33.48 36.4-35.7 40.9-35.7L40.9-35.7Q45.05-35.7 48.6-34.15L48.6-34.15 48-29.05Q46.4-29.85 44.92-30.25 43.45-30.65 41.75-30.65L41.75-30.65Q36.65-30.65 33.82-27.03 31-23.4 31-17.5L31-17.5Q31-11.6 33.82-7.98 36.65-4.35 41.75-4.35L41.75-4.35Q44.85-4.35 48-5.85L48-5.85 48.6-0.8Q45.35 0.7 40.95 0.7L40.95 0.7ZM65.59 0.7Q61.3 0.7 57.92-1.55 54.55-3.8 52.65-7.93 50.75-12.05 50.75-17.5L50.75-17.5Q50.75-22.95 52.65-27.08 54.55-31.2 57.92-33.45 61.3-35.7 65.59-35.7L65.59-35.7Q69.9-35.7 73.25-33.45 76.59-31.2 78.5-27.08 80.4-22.95 80.4-17.5L80.4-17.5Q80.4-12.05 78.5-7.93 76.59-3.8 73.25-1.55 69.9 0.7 65.59 0.7L65.59 0.7ZM65.59-4.55Q70.05-4.55 72.45-8.15 74.84-11.75 74.84-17.5L74.84-17.5Q74.84-23.25 72.45-26.85 70.05-30.45 65.59-30.45L65.59-30.45Q61.15-30.45 58.75-26.85 56.35-23.25 56.35-17.5L56.35-17.5Q56.35-11.75 58.75-8.15 61.15-4.55 65.59-4.55L65.59-4.55ZM95.14 0L95.14-35 100.34-35 100.34 0 95.14 0ZM111.54 0L100.59-18.55 111.54-35 117.54-35 106.44-18.55 117.54 0 111.54 0ZM139.24 0L136.59-9 126.14-9 123.54 0 118.14 0 128.84-35 133.94-35 144.64 0 139.24 0ZM127.54-13.85L135.19-13.85 131.39-26.95 127.54-13.85ZM148.24 0L148.24-35 157.74-35Q163.24-35 166.34-32.3 169.44-29.6 169.44-24.25L169.44-24.25Q169.44-21.15 168.06-18.7 166.69-16.25 164.24-14.9L164.24-14.9 171.09 0 165.04 0 159.04-13.4Q158.74-13.35 157.89-13.35L157.89-13.35 153.49-13.35 153.49 0 148.24 0ZM153.49-18L157.29-18Q160.69-18 162.34-19.53 163.99-21.05 163.99-24.15L163.99-24.15Q163.99-27.3 162.34-28.83 160.69-30.35 157.29-30.35L157.29-30.35 153.49-30.35 153.49-18ZM205.73 0L200.23 0 197.78-24 189.83-7.15 181.88-24 179.38 0 173.88 0 177.93-35 182.28-35 189.83-18.15 197.33-35 201.68-35 205.73 0ZM228.98 0L226.33-9 215.88-9 213.28 0 207.88 0 218.58-35 223.68-35 234.38 0 228.98 0ZM217.28-13.85L224.93-13.85 221.13-26.95 217.28-13.85Z" opacity="1" transform="matrix(1,0,0,1,0,0)" fill="#fafafa" class="wordmark-text-0" data-fill-palette-color="quaternary" id="text-0"></path></svg></g></svg></g><g transform="matrix(1,0,0,1,0,41.500100457369534)"><svg viewBox="0 0 213.1584412271571 13.780245556644203" height="13.780245556644203" width="213.1584412271571"><g transform="matrix(1,0,0,1,0,0)"><svg width="213.1584412271571" viewBox="1.65 -35.7 563 36.400000000000006" height="13.780245556644203" data-palette-color="#fafafa"><path d="M11.6 0.7Q9.15 0.7 6.48 0.13 3.8-0.45 2.1-1.25L2.1-1.25 2.75-6.25Q4.75-5 7.2-4.23 9.65-3.45 12.05-3.45L12.05-3.45Q15.15-3.45 16.9-4.73 18.65-6 18.65-8.45L18.65-8.45Q18.65-10.2 17.82-11.45 17-12.7 15.45-13.68 13.9-14.65 11.1-15.9L11.1-15.9Q7.8-17.4 5.88-18.65 3.95-19.9 2.8-21.75 1.65-23.6 1.65-26.35L1.65-26.35Q1.65-29.15 3.1-31.28 4.55-33.4 7.18-34.55 9.8-35.7 13.15-35.7L13.15-35.7Q15.7-35.7 17.98-35.15 20.25-34.6 21.85-33.8L21.85-33.8 21.35-29.1Q17.2-31.55 12.9-31.55L12.9-31.55Q10-31.55 8.35-30.35 6.7-29.15 6.7-26.65L6.7-26.65Q6.7-24.95 7.58-23.83 8.45-22.7 10-21.83 11.55-20.95 14.7-19.5L14.7-19.5Q19.4-17.4 21.55-14.98 23.7-12.55 23.7-8.9L23.7-8.9Q23.7-4.45 20.45-1.88 17.2 0.7 11.6 0.7L11.6 0.7ZM41.3 0.7Q37 0.7 33.62-1.55 30.25-3.8 28.35-7.93 26.45-12.05 26.45-17.5L26.45-17.5Q26.45-22.95 28.35-27.08 30.25-31.2 33.62-33.45 37-35.7 41.3-35.7L41.3-35.7Q45.6-35.7 48.95-33.45 52.3-31.2 54.2-27.08 56.1-22.95 56.1-17.5L56.1-17.5Q56.1-12.05 54.2-7.93 52.3-3.8 48.95-1.55 45.6 0.7 41.3 0.7L41.3 0.7ZM41.3-3.85Q46.1-3.85 48.67-7.68 51.25-11.5 51.25-17.5L51.25-17.5Q51.25-23.5 48.67-27.33 46.1-31.15 41.3-31.15L41.3-31.15Q36.5-31.15 33.9-27.33 31.3-23.5 31.3-17.5L31.3-17.5Q31.3-11.5 33.9-7.68 36.5-3.85 41.3-3.85L41.3-3.85ZM60.89 0L60.89-35 65.44-35 65.44-4.15 78.8-4.15 78.8 0 60.89 0ZM82.79 0L82.79-35 87.39-35 87.39 0 82.79 0ZM94.39 0L94.39-35 105.59-35Q109.94-35 113.31-32.9 116.69-30.8 118.59-26.85 120.49-22.9 120.49-17.5L120.49-17.5Q120.49-12.1 118.59-8.15 116.69-4.2 113.31-2.1 109.94 0 105.59 0L105.59 0 94.39 0ZM98.94-4.15L104.74-4.15Q109.99-4.15 112.72-7.65 115.44-11.15 115.44-17.5L115.44-17.5Q115.44-23.85 112.72-27.35 109.99-30.85 104.74-30.85L104.74-30.85 98.94-30.85 98.94-4.15ZM140.79 0L132.14-35 137.04-35 143.34-6.35 149.94-34.3 155.09-34.3 161.64-6.35 167.99-35 172.84-35 164.24 0 159.09 0 152.44-27.7 145.94 0 140.79 0ZM193.48 0L190.68-9.5 179.83-9.5 177.03 0 172.13 0 182.88-35 187.58-35 198.33 0 193.48 0ZM181.08-13.75L189.43-13.75 185.23-27.95 181.08-13.75ZM210.33 0.7Q207.88 0.7 205.21 0.13 202.53-0.45 200.83-1.25L200.83-1.25 201.48-6.25Q203.48-5 205.93-4.23 208.38-3.45 210.78-3.45L210.78-3.45Q213.88-3.45 215.63-4.73 217.38-6 217.38-8.45L217.38-8.45Q217.38-10.2 216.56-11.45 215.73-12.7 214.18-13.68 212.63-14.65 209.83-15.9L209.83-15.9Q206.53-17.4 204.61-18.65 202.68-19.9 201.53-21.75 200.38-23.6 200.38-26.35L200.38-26.35Q200.38-29.15 201.83-31.28 203.28-33.4 205.91-34.55 208.53-35.7 211.88-35.7L211.88-35.7Q214.43-35.7 216.71-35.15 218.98-34.6 220.58-33.8L220.58-33.8 220.08-29.1Q215.93-31.55 211.63-31.55L211.63-31.55Q208.73-31.55 207.08-30.35 205.43-29.15 205.43-26.65L205.43-26.65Q205.43-24.95 206.31-23.83 207.18-22.7 208.73-21.83 210.28-20.95 213.43-19.5L213.43-19.5Q218.13-17.4 220.28-14.98 222.43-12.55 222.43-8.9L222.43-8.9Q222.43-4.45 219.18-1.88 215.93 0.7 210.33 0.7L210.33 0.7ZM233.28 0L233.28-30.85 224.58-30.85 224.58-35 246.58-35 246.58-30.85 237.88-30.85 237.88 0 233.28 0ZM250.78 0L250.78-35 269.48-35 269.48-30.85 255.33-30.85 255.33-20.4 266.53-20.4 266.53-16.2 255.33-16.2 255.33-4.15 269.88-4.15 269.88 0 250.78 0ZM314.67 0L309.77 0 307.47-25.3 299.02-7.25 290.57-25.3 288.22 0 283.37 0 287.17-35 291.02-35 299.02-16.95 307.02-35 310.87-35 314.67 0ZM338.22 0L335.42-9.5 324.57-9.5 321.77 0 316.87 0 327.62-35 332.32-35 343.07 0 338.22 0ZM325.82-13.75L334.17-13.75 329.97-27.95 325.82-13.75ZM346.77 0L346.77-35 351.92-35 365.77-9.4 365.77-35 370.32-35 370.32 0 366.07 0 351.32-27.05 351.32 0 346.77 0ZM395.36 0L392.56-9.5 381.71-9.5 378.91 0 374.01 0 384.76-35 389.46-35 400.21 0 395.36 0ZM382.96-13.75L391.31-13.75 387.11-27.95 382.96-13.75ZM418.06 0.7Q413.01 0.7 409.31-1.63 405.61-3.95 403.64-8.08 401.66-12.2 401.66-17.5L401.66-17.5Q401.66-22.95 403.76-27.08 405.86-31.2 409.54-33.45 413.21-35.7 417.91-35.7L417.91-35.7Q422.21-35.7 425.71-34.2L425.71-34.2 425.21-29.95Q423.56-30.75 421.94-31.15 420.31-31.55 418.36-31.55L418.36-31.55Q414.66-31.55 412.04-29.7 409.41-27.85 408.06-24.65 406.71-21.45 406.71-17.5L406.71-17.5Q406.71-11.2 409.66-7.33 412.61-3.45 418.31-3.45L418.31-3.45Q420.51-3.45 422.16-4.15L422.16-4.15 422.16-13.4 417.71-13.4 417.71-17.55 426.71-17.55 426.71-1.6Q425.06-0.55 422.76 0.08 420.46 0.7 418.06 0.7L418.06 0.7ZM432.01 0L432.01-35 450.71-35 450.71-30.85 436.56-30.85 436.56-20.4 447.76-20.4 447.76-16.2 436.56-16.2 436.56-4.15 451.11-4.15 451.11 0 432.01 0ZM486.21 0L481.31 0 479.01-25.3 470.56-7.25 462.11-25.3 459.76 0 454.91 0 458.71-35 462.56-35 470.56-16.95 478.56-35 482.41-35 486.21 0ZM491.05 0L491.05-35 509.75-35 509.75-30.85 495.6-30.85 495.6-20.4 506.8-20.4 506.8-16.2 495.6-16.2 495.6-4.15 510.15-4.15 510.15 0 491.05 0ZM514.9 0L514.9-35 520.05-35 533.9-9.4 533.9-35 538.45-35 538.45 0 534.2 0 519.45-27.05 519.45 0 514.9 0ZM551.35 0L551.35-30.85 542.65-30.85 542.65-35 564.65-35 564.65-30.85 555.95-30.85 555.95 0 551.35 0Z" opacity="1" transform="matrix(1,0,0,1,0,0)" fill="#fafafa" class="slogan-text-1" data-fill-palette-color="quaternary" id="text-1"></path></svg></g></svg></g></svg></g></svg></g><g transform="matrix(1,0,0,1,66.10768284569542,0)"><svg viewBox="0 0 80.94307553576625 76.39743819136699" height="76.39743819136699" width="80.94307553576625"><g><svg xmlns="http://www.w3.org/2000/svg" xmlns:xlink="http://www.w3.org/1999/xlink" version="1.1" x="0" y="0" viewBox="0.0004345589032154207 3.6159999999999988 99.99983880456487 94.38400324735183" enable-background="new 0 0 100 100" xml:space="preserve" width="80.94307553576625" height="76.39743819136699" class="icon-icon-0" data-fill-palette-color="quaternary" id="icon-0"><path d="M85.057 15.918c-0.42-0.728-1.373-1.215-2.125-0.782l-0.793 0.458c-1.075 0.62-1.715-0.237-1.879-0.504l-2.412-4.178c-0.169-0.292-4.218-7.164-11.509-7.296L37.004 3.623H36.91c-0.001 0-0.001 0-0.003 0-8.914-0.152-13.949 6.677-14.158 6.969-0.015 0.019-0.026 0.039-0.038 0.059l-7.687 13.387c-0.462 0.799-0.469 1.667-0.021 2.443 0.401 0.695 1.028 1.095 1.115 1.147l18.457 10.657c0.063 0.036 0.645 0.359 1.424 0.358 0.744 0 1.798-0.292 2.6-1.681l11.651-20.18 6.769 11.726c0.598 1.034 0.1 1.46-0.057 1.559l-0.933 0.539c-0.856 0.494-1.187 1.659-0.704 2.493 0.243 0.42 0.655 0.695 1.162 0.773l20.064 3.076c0.308 0.047 0.608-0.123 0.727-0.411l7.876-19.186C85.361 16.905 85.325 16.382 85.057 15.918zM37.432 36.288c-0.847 1.466-1.97 0.945-2.181 0.829L16.813 26.471c-0.004-0.002-0.408-0.26-0.641-0.665-0.209-0.361-0.202-0.708 0.021-1.095l7.668-13.355c0.153-0.204 1.253-1.605 3.159-3.044l-1.185 2.052c-0.186 0.323-0.077 0.735 0.247 0.922 0.323 0.186 0.735 0.076 0.921-0.248l2.476-4.286c0.917-0.479 1.941-0.9 3.062-1.215l-2.885 4.995c-0.186 0.323-0.075 0.734 0.247 0.921 0.322 0.187 0.735 0.077 0.922-0.246l3.496-6.055c0.783-0.121 1.604-0.188 2.464-0.18l-3.308 5.728c-0.186 0.323-0.076 0.735 0.247 0.922 0.323 0.187 0.735 0.075 0.922-0.248l3.624-6.277c0.721 0.115 1.406 0.298 2.047 0.542l-3.019 5.229c-0.186 0.322-0.076 0.734 0.246 0.921 0.323 0.187 0.735 0.077 0.923-0.246l3.083-5.34c0.625 0.327 1.202 0.696 1.729 1.09l-2.161 3.743c-0.187 0.323-0.075 0.735 0.248 0.922 0.322 0.186 0.734 0.075 0.921-0.248l2.052-3.554c0.579 0.52 1.075 1.038 1.486 1.515l-0.885 1.534c-0.187 0.322-0.077 0.734 0.246 0.921s0.735 0.077 0.922-0.246l0.618-1.072c0.333 0.462 0.52 0.769 0.526 0.782l2.218 3.84L37.432 36.288zM83.917 16.813l-7.684 18.721-19.539-2.995c-0.131-0.019-0.175-0.071-0.2-0.114-0.092-0.16-0.044-0.502 0.21-0.649l0.934-0.538c0.524-0.304 1.646-1.506 0.55-3.404l-9.766-16.916c-0.123-0.214-2.294-3.897-6.171-5.945l24.075-0.006c6.506 0.118 10.316 6.557 10.354 6.621l2.416 4.184c0.557 0.94 2.007 1.979 3.717 0.991l0.76-0.439c0.072 0.018 0.226 0.112 0.315 0.269C83.905 16.622 83.959 16.723 83.917 16.813z" fill="#fafafa" data-fill-palette-color="quaternary"></path><path d="M62.886 98c0.84 0 1.739-0.582 1.739-1.449v-0.916c0-1.24 1.063-1.366 1.376-1.375h4.823c0.338 0 8.314-0.071 12.074-6.32L97.56 62.532l0.048-0.081v-0.002c4.589-7.645 1.191-15.419 1.044-15.746-0.01-0.021-0.02-0.043-0.032-0.063l-7.75-13.35c-0.461-0.799-1.209-1.238-2.106-1.238-0.801 0-1.461 0.343-1.55 0.393L68.755 43.1c-0.063 0.037-0.632 0.379-1.021 1.054-0.372 0.644-0.646 1.703 0.156 3.092l11.65 20.18L66 67.424c-1.193 0-1.313-0.645-1.321-0.828l-0.001-1.077c0-0.989-0.844-1.856-1.806-1.856-0.486 0-0.932 0.22-1.252 0.62L48.925 80.12c-0.194 0.243-0.197 0.588-0.008 0.835l12.679 16.414C61.878 97.771 62.349 98.001 62.886 98zM69.058 46.57c-0.847-1.466 0.166-2.178 0.372-2.303l18.438-10.644c0.005-0.003 0.43-0.223 0.896-0.223 0.418 0 0.717 0.179 0.938 0.564l7.732 13.319c0.099 0.234 0.764 1.887 1.056 4.258l-1.185-2.053c-0.187-0.322-0.599-0.434-0.922-0.247-0.322 0.187-0.434 0.6-0.247 0.922l2.475 4.286c-0.044 1.034-0.191 2.132-0.479 3.259l-2.884-4.995c-0.187-0.322-0.599-0.433-0.922-0.246s-0.434 0.599-0.248 0.921l3.496 6.055c-0.287 0.739-0.638 1.482-1.076 2.224l-3.307-5.728c-0.187-0.323-0.599-0.434-0.922-0.248-0.323 0.187-0.434 0.6-0.247 0.923l3.624 6.276c-0.459 0.566-0.961 1.069-1.493 1.502l-3.02-5.229c-0.186-0.321-0.597-0.432-0.92-0.246-0.324 0.186-0.435 0.598-0.249 0.921l3.084 5.34c-0.596 0.378-1.204 0.694-1.81 0.954l-2.161-3.743c-0.186-0.323-0.599-0.434-0.922-0.247-0.322 0.187-0.434 0.599-0.246 0.921l2.052 3.555c-0.74 0.242-1.437 0.411-2.055 0.529l-0.886-1.534c-0.187-0.321-0.598-0.433-0.921-0.246-0.323 0.186-0.435 0.599-0.248 0.921l0.619 1.073c-0.566 0.057-0.925 0.064-0.94 0.064l-4.434-0.001L69.058 46.57zM62.681 96.566l-12.37-16.016 12.362-15.424c0.083-0.103 0.149-0.115 0.199-0.115 0.184 0 0.457 0.212 0.457 0.506v1.078c0 0.605 0.479 2.178 2.672 2.178l19.532 0.001c0.248 0 4.522-0.038 8.234-2.372L81.735 87.255c-3.354 5.575-10.836 5.655-10.911 5.655h-4.83c-1.094 0.014-2.717 0.75-2.719 2.725l0.002 0.877c-0.053 0.054-0.21 0.14-0.392 0.14C62.852 96.651 62.738 96.646 62.681 96.566z" fill="#fafafa" data-fill-palette-color="quaternary"></path><path d="M2.763 37.67c-0.42 0.728-0.366 1.797 0.385 2.231l0.793 0.458c1.075 0.621 0.652 1.604 0.504 1.879l-2.413 4.178c-0.168 0.292-4.095 7.235-0.563 13.616l14.674 25.4 0.047 0.081c0 0.001 0 0.001 0.001 0.003 4.326 7.795 12.757 8.74 13.114 8.776 0.023 0.003 0.047 0.004 0.07 0.004l15.438-0.037c0.922 0 1.677-0.428 2.126-1.205 0.4-0.693 0.433-1.438 0.435-1.539l0.001-21.313c0-0.072-0.012-0.736-0.402-1.411-0.371-0.644-1.151-1.411-2.755-1.411H20.915l6.77-11.726c0.597-1.034 1.216-0.815 1.378-0.729l0.934 0.537c0.856 0.495 2.029 0.198 2.511-0.636 0.243-0.42 0.274-0.916 0.089-1.394L25.228 34.52c-0.113-0.291-0.411-0.465-0.719-0.424L3.955 36.869C3.465 36.913 3.03 37.206 2.763 37.67zM44.216 68.73c1.692 0 1.803 1.232 1.808 1.473v21.29c0 0.005-0.021 0.483-0.256 0.887-0.208 0.362-0.512 0.53-0.958 0.53L29.41 92.947c-0.254-0.03-2.016-0.282-4.216-1.215l2.369 0.001c0.373 0 0.675-0.302 0.676-0.676-0.001-0.372-0.301-0.674-0.676-0.674h-4.948c-0.873-0.556-1.75-1.231-2.583-2.045h5.769c0.372 0 0.675-0.301 0.674-0.674 0.001-0.373-0.302-0.676-0.674-0.676h-6.992c-0.496-0.617-0.965-1.293-1.388-2.043h6.614c0.373 0 0.675-0.302 0.675-0.675s-0.302-0.675-0.675-0.675h-7.248c-0.261-0.682-0.445-1.367-0.554-2.044h6.038c0.372 0 0.674-0.302 0.674-0.674 0.001-0.373-0.301-0.675-0.674-0.676l-6.167 0.001c-0.028-0.706 0.003-1.391 0.08-2.045h4.322c0.373 0.001 0.675-0.302 0.675-0.675-0.001-0.372-0.302-0.674-0.675-0.674h-4.104c0.161-0.762 0.362-1.45 0.569-2.045h1.771c0.371 0 0.674-0.301 0.674-0.675 0-0.372-0.302-0.675-0.674-0.675h-1.238c0.233-0.519 0.406-0.833 0.414-0.847l2.217-3.839H44.216zM4.106 38.209l20.056-2.705 7.175 18.418c0.049 0.122 0.026 0.187 0.001 0.229-0.092 0.16-0.412 0.29-0.667 0.144l-0.933-0.54c-0.524-0.302-2.127-0.673-3.223 1.226l-9.767 16.916c-0.124 0.214-2.229 3.935-2.063 8.316L2.643 59.367c-3.15-5.693 0.521-12.212 0.558-12.276l2.415-4.184c0.536-0.954 0.71-2.728-1-3.716l-0.76-0.438c-0.021-0.072-0.016-0.251 0.075-0.408C3.947 38.315 4.008 38.219 4.106 38.209z" fill="#fafafa" data-fill-palette-color="quaternary"></path></svg></g></svg></g><g></g></svg></g></svg></g></svg></g><defs></defs></svg><rect width="342.85155851775386" height="342.85155851775386" fill="none" stroke="none" visibility="hidden"></rect></g></svg></g></svg>